<svg width="40" height="41" viewBox="0 0 40 41" fill="none" xmlns="http://www.w3.org/2000/svg">
  <path d="M26.5934 40.2393C26.4733 40.2393 26.3332 40.2192 26.2131 40.1792C22.1907 39.0385 17.9682 39.0385 13.9458 40.1792C13.2054 40.3793 12.4249 39.9591 12.2248 39.2187C12.0047 38.4782 12.4449 37.6977 13.1854 37.4976C17.7081 36.2169 22.4709 36.2169 26.9936 37.4976C27.734 37.7178 28.1743 38.4782 27.9542 39.2187C27.754 39.839 27.1937 40.2393 26.5934 40.2393Z" fill="#393C43" />
  <path d="M34.4982 8.9408C32.417 4.73829 28.3946 1.63644 23.7318 0.615834C18.8489 -0.464811 13.8459 0.695882 10.0236 3.77772C6.1813 6.83955 4 11.4223 4 16.3252C4 21.5083 7.10185 26.9315 11.7846 30.0734V31.7344C11.7646 32.2947 11.7446 33.1552 12.425 33.8557C13.1254 34.5761 14.1661 34.6561 14.9866 34.6561H25.2527C26.3333 34.6561 27.1538 34.356 27.7141 33.7956C28.4746 33.0152 28.4546 32.0146 28.4346 31.4742V30.0734C34.6383 25.8909 38.5406 17.0656 34.4982 8.9408ZM23.5116 19.4671L21.3704 23.1893C21.0902 23.6696 20.5899 23.9498 20.0696 23.9498C19.8094 23.9498 19.5493 23.8897 19.3291 23.7496C18.6087 23.3294 18.3686 22.4088 18.7688 21.7084L20.4698 18.7467H18.7888C17.7882 18.7467 16.9677 18.3064 16.5275 17.5659C16.0872 16.8055 16.1272 15.8849 16.6275 15.0044L18.7688 11.2822C19.1891 10.5618 20.1096 10.3216 20.81 10.7219C21.5305 11.1421 21.7706 12.0627 21.3704 12.7631L19.6693 15.7248H21.3504C22.3509 15.7248 23.1714 16.1651 23.6117 16.9056C24.052 17.666 24.0119 18.6066 23.5116 19.4671Z" fill="#393C43" />
</svg>