<svg width="313" height="73" viewBox="0 0 313 73" fill="none" xmlns="http://www.w3.org/2000/svg">
<path d="M277 0C296.882 0 313 16.1177 313 36C313 55.8823 296.882 72 277 72C265.652 72 255.531 66.7492 248.933 58.5448C245.537 54.3213 240.792 51 235.372 51C229.798 51 224.954 54.5045 221.557 58.9231C214.975 67.4831 204.632 73 193 73H36C16.1178 73 0 56.8823 0 37C0 17.1178 16.1178 1 36 1H193C204.888 1 215.43 6.76258 221.986 15.6467C225.038 19.7835 229.517 23 234.658 23C239.94 23 244.508 19.6125 247.549 15.2943C254.064 6.04371 264.826 0 277 0Z" fill="white"/>
</svg>
