<svg width="312" height="53" viewBox="0 0 312 53" fill="none" xmlns="http://www.w3.org/2000/svg">
<path d="M232.925 0.765625C242.305 0.765625 250.524 5.73356 255.096 13.1814C256.034 14.7083 257.633 15.7656 259.425 15.7656C261.216 15.7656 262.816 14.7083 263.753 13.1814C268.326 5.73356 276.545 0.765625 285.925 0.765625C300.284 0.765625 311.925 12.4062 311.925 26.7656C311.925 41.125 300.284 52.7656 285.925 52.7656C277.727 52.7656 270.416 48.9718 265.651 43.0443C264.108 41.1253 261.887 39.7656 259.425 39.7656C256.963 39.7656 254.742 41.1253 253.199 43.0443C248.434 48.9718 241.122 52.7656 232.925 52.7656H26.9248C12.5654 52.7656 0.924805 41.125 0.924805 26.7656C0.924805 12.4062 12.5654 0.765625 26.9248 0.765625H232.925Z" fill="#CCCDCE"/>
<path d="M63.6068 24.5796V22.8856C63.6068 21.6976 63.8415 20.7663 64.3108 20.0916C64.7801 19.417 65.6161 19.0796 66.8188 19.0796C67.4348 19.0796 67.9628 19.1823 68.4028 19.3876C68.8428 19.5783 69.1801 19.813 69.4148 20.0916C69.6641 20.3703 69.8548 20.7223 69.9868 21.1476C70.1188 21.573 70.1995 21.9616 70.2288 22.3136C70.2728 22.651 70.2948 23.0396 70.2948 23.4796C70.2948 25.3423 69.7081 26.369 68.5348 26.5596C69.7081 26.6476 70.2948 27.5056 70.2948 29.1336V31.2676C70.2948 33.7316 69.1948 34.9636 66.9948 34.9636C64.7361 34.9636 63.6068 33.6583 63.6068 31.0476V28.7816H65.6748V31.3556C65.6748 31.7223 65.6968 32.023 65.7408 32.2576C65.7848 32.4923 65.9095 32.705 66.1148 32.8956C66.3201 33.0863 66.6061 33.1816 66.9728 33.1816C67.4421 33.1816 67.7648 33.0643 67.9408 32.8296C68.1315 32.5803 68.2268 32.1036 68.2268 31.3996V29.2216C68.2268 28.6936 68.1535 28.305 68.0068 28.0556C67.8748 27.7916 67.5961 27.6596 67.1708 27.6596H65.5208V25.7236H67.0388C67.4935 25.7236 67.8015 25.599 67.9628 25.3496C68.1388 25.1003 68.2268 24.631 68.2268 23.9416V22.5556C68.2268 21.4263 67.7941 20.8616 66.9288 20.8616C66.0781 20.8616 65.6528 21.397 65.6528 22.4676V24.5796H63.6068ZM78.3908 34.7656H76.3888L75.9928 31.9056H73.6608L73.3088 34.7656H71.3068L73.5068 19.2336H75.9928L78.3908 34.7656ZM75.7288 30.0136L74.7388 21.9396L73.8808 30.0136H75.7288ZM85.365 34.7656H83.319V21.2356H81.427V34.7656H79.381V19.2336H85.365V34.7656ZM93.3194 34.7656H91.2734V26.2296L89.1614 33.0496V34.7656H87.1154V19.2336H89.1614V27.5276L91.2734 20.7076V19.2336H93.3194V34.7656ZM101.774 28.3416V31.0476C101.774 33.6583 100.645 34.9636 98.3861 34.9636C96.1861 34.9636 95.0861 33.7316 95.0861 31.2676V23.4796C95.0861 23.0396 95.1007 22.651 95.1301 22.3136C95.1741 21.9616 95.2621 21.573 95.3941 21.1476C95.5261 20.7223 95.7094 20.3703 95.9441 20.0916C96.1934 19.813 96.5381 19.5783 96.9781 19.3876C97.4181 19.1823 97.9461 19.0796 98.5621 19.0796C99.7647 19.0796 100.601 19.417 101.07 20.0916C101.539 20.7663 101.774 21.6976 101.774 22.8856V24.8656H99.7281V22.4676C99.7281 21.397 99.3027 20.8616 98.4521 20.8616C97.5867 20.8616 97.1541 21.4263 97.1541 22.5556V31.3996C97.1541 32.1036 97.2421 32.5803 97.4181 32.8296C97.6087 33.0643 97.9387 33.1816 98.4081 33.1816C98.9361 33.1816 99.2807 33.0203 99.4421 32.6976C99.6181 32.375 99.7061 31.9276 99.7061 31.3556V28.3416H101.774ZM109.672 34.7656H107.67L107.274 31.9056H104.942L104.59 34.7656H102.588L104.788 19.2336H107.274L109.672 34.7656ZM107.01 30.0136L106.02 21.9396L105.162 30.0136H107.01ZM116.33 21.0596H113.91V34.7656H111.82V21.0596H109.466V19.2336H116.33V21.0596ZM117.43 19.2336H119.454V25.6576H121.434C122.255 25.6576 122.812 25.8336 123.106 26.1856C123.399 26.5376 123.546 27.1316 123.546 27.9676V31.8836C123.546 33.0276 123.428 33.7976 123.194 34.1936C122.974 34.575 122.402 34.7656 121.478 34.7656H117.43V19.2336ZM119.454 27.5276V32.8956H120.752C121.03 32.8956 121.221 32.8516 121.324 32.7636C121.426 32.661 121.478 32.4776 121.478 32.2136V28.2976C121.478 28.0043 121.426 27.8063 121.324 27.7036C121.221 27.5863 121.016 27.5276 120.708 27.5276H119.454ZM131.422 28.3416V31.0476C131.422 33.6583 130.293 34.9636 128.034 34.9636C125.834 34.9636 124.734 33.7316 124.734 31.2676V23.4796C124.734 23.0396 124.749 22.651 124.778 22.3136C124.822 21.9616 124.91 21.573 125.042 21.1476C125.174 20.7223 125.358 20.3703 125.592 20.0916C125.842 19.813 126.186 19.5783 126.626 19.3876C127.066 19.1823 127.594 19.0796 128.21 19.0796C129.413 19.0796 130.249 19.417 130.718 20.0916C131.188 20.7663 131.422 21.6976 131.422 22.8856V24.8656H129.376V22.4676C129.376 21.397 128.951 20.8616 128.1 20.8616C127.235 20.8616 126.802 21.4263 126.802 22.5556V31.3996C126.802 32.1036 126.89 32.5803 127.066 32.8296C127.257 33.0643 127.587 33.1816 128.056 33.1816C128.584 33.1816 128.929 33.0203 129.09 32.6976C129.266 32.375 129.354 31.9276 129.354 31.3556V28.3416H131.422ZM136.526 27.5716C136.028 27.5863 135.69 27.7183 135.514 27.9676C135.353 28.217 135.272 28.6936 135.272 29.3976V32.7856C135.272 33.5043 135.118 34.0176 134.81 34.3256C134.517 34.619 133.996 34.7656 133.248 34.7656H132.412V32.8956C132.75 32.8956 132.97 32.8443 133.072 32.7416C133.175 32.6243 133.226 32.4043 133.226 32.0816V28.8036C133.226 27.601 133.688 26.8896 134.612 26.6696C134.128 26.5816 133.762 26.3763 133.512 26.0536C133.263 25.731 133.138 25.225 133.138 24.5356V22.2476C133.138 21.0156 133.344 20.1943 133.754 19.7836C134.121 19.417 134.7 19.2336 135.492 19.2336H139.254V34.7656H137.208V27.5716H136.526ZM137.186 25.7016V21.1036H136.064C135.683 21.1036 135.441 21.177 135.338 21.3236C135.236 21.4556 135.184 21.7636 135.184 22.2476V24.0516C135.184 24.741 135.25 25.1883 135.382 25.3936C135.514 25.599 135.815 25.7016 136.284 25.7016H137.186ZM151.085 34.7656H149.039V27.5496H147.147V34.7656H145.101V19.2336H147.147V25.5476H149.039V19.2336H151.085V34.7656ZM159.237 34.7656H157.235L156.839 31.9056H154.507L154.155 34.7656H152.153L154.353 19.2336H156.839L159.237 34.7656ZM156.575 30.0136L155.585 21.9396L154.727 30.0136H156.575ZM170.314 34.7656H168.268V21.2356H166.376V34.7656H164.33V19.2336H170.314V34.7656ZM172.087 19.2336H176.091C176.912 19.2336 177.469 19.4096 177.763 19.7616C178.056 20.1136 178.203 20.7076 178.203 21.5436V24.8436C178.203 25.9876 178.085 26.7576 177.851 27.1536C177.631 27.535 177.059 27.7256 176.135 27.7256H174.089V34.7656H172.087V19.2336ZM174.111 21.1256V25.8776H175.409C175.687 25.8776 175.878 25.8336 175.981 25.7456C176.083 25.643 176.135 25.4596 176.135 25.1956V21.8956C176.135 21.6023 176.083 21.4043 175.981 21.3016C175.878 21.1843 175.673 21.1256 175.365 21.1256H174.111ZM185.595 34.7656H183.549V26.2296L181.437 33.0496V34.7656H179.391V19.2336H181.437V27.5276L183.549 20.7076V19.2336H185.595V34.7656ZM192.531 34.7656H187.405V19.2336H192.531V21.1696H189.473V25.7236H192.201V27.6596H189.495V32.8076H192.531V34.7656ZM202.915 34.7656H201.023C201.023 28.1656 200.994 24.0003 200.935 22.2696L199.241 34.7656H197.503L195.743 22.2696V34.7656H193.829V19.2336H196.755L198.383 29.5296L199.901 19.2336H202.915V34.7656Z" fill="#393C43" fill-opacity="0.5"/>
<g opacity="0.5">
<path d="M278.44 26.0148L277.69 26.0148L277.69 27.5148L278.44 27.5148L278.44 26.7648L278.44 26.0148ZM294.349 27.5148C294.764 27.5148 295.099 27.179 295.099 26.7648C295.099 26.3506 294.764 26.0148 294.349 26.0148L294.349 26.7648L294.349 27.5148ZM278.44 26.7648L278.44 27.5148H294.349L294.349 26.7648L294.349 26.0148H278.44L278.44 26.7648Z" fill="#393C43"/>
<path d="M288.516 19.8706L295.41 26.7649L288.516 33.6592" stroke="#393C43" stroke-width="1.5" stroke-linecap="round" stroke-linejoin="round"/>
</g>
</svg>
