<svg width="28" height="28" viewBox="0 0 28 28" fill="none" xmlns="http://www.w3.org/2000/svg">
<path fill-rule="evenodd" clip-rule="evenodd" d="M18.901 3.74294L18.9021 4.57585C21.9628 4.81573 23.9846 6.90135 23.9879 10.0998L24 19.4617C24.0044 22.9489 21.8136 25.0945 18.302 25.1L9.72431 25.1111C6.23466 25.1156 4.01646 22.9189 4.01207 19.4218L4.00001 10.1697C3.99562 6.95022 5.94614 4.87015 9.00686 4.58918L9.00576 3.75626C9.00466 3.26762 9.36668 2.90002 9.84938 2.90002C10.3321 2.89891 10.6941 3.2654 10.6952 3.75404L10.6963 4.53143L17.2126 4.52254L17.2116 3.74516C17.2105 3.25651 17.5725 2.89003 18.0552 2.88892C18.5269 2.88781 18.8999 3.25429 18.901 3.74294ZM5.69055 10.5129L22.2996 10.4907V10.102C22.2524 7.71428 21.0545 6.46157 18.9043 6.275L18.9054 7.13013C18.9054 7.60767 18.5335 7.98637 18.0618 7.98637C17.5791 7.98748 17.216 7.60989 17.216 7.13235L17.2149 6.2328L10.6985 6.24168L10.6996 7.14012C10.6996 7.61877 10.3387 7.99636 9.85598 7.99636C9.37328 7.99747 9.01017 7.62099 9.01017 7.14234L9.00907 6.28722C6.86986 6.50155 5.68616 7.7587 5.68945 10.1675L5.69055 10.5129ZM17.6003 15.5603V15.5725C17.6112 16.0834 18.0281 16.471 18.5338 16.4599C19.0275 16.4477 19.4213 16.0245 19.4104 15.5137C19.3873 15.025 18.9913 14.6263 18.4987 14.6275C17.9941 14.6386 17.5992 15.0495 17.6003 15.5603ZM18.5056 20.5467C18.001 20.5356 17.594 20.1147 17.5929 19.6039C17.5819 19.093 17.9867 18.6699 18.4913 18.6577H18.5023C19.0179 18.6577 19.4359 19.0786 19.4359 19.6005C19.437 20.1225 19.0201 20.5456 18.5056 20.5467ZM13.0799 15.5781C13.1018 16.0889 13.5198 16.4876 14.0244 16.4654C14.5181 16.4421 14.9119 16.0201 14.89 15.5092C14.8779 15.0095 14.472 14.6208 13.9783 14.6219C13.4737 14.6441 13.0788 15.0672 13.0799 15.5781ZM14.0287 20.4967C13.5241 20.5189 13.1072 20.1202 13.0842 19.6094C13.0842 19.0985 13.478 18.6765 13.9827 18.6532C14.4763 18.6521 14.8833 19.0408 14.8943 19.5394C14.9173 20.0514 14.5224 20.4734 14.0287 20.4967ZM8.56054 15.617C8.58248 16.1279 9.00045 16.5277 9.50509 16.5043C9.99875 16.4821 10.3926 16.059 10.3695 15.5482C10.3586 15.0484 9.95267 14.6597 9.45791 14.6608C8.95328 14.683 8.55945 15.1062 8.56054 15.617ZM9.50943 20.5023C9.00479 20.5256 8.58792 20.1258 8.56488 19.6149C8.56379 19.1041 8.95872 18.681 9.46335 18.6587C9.95702 18.6576 10.364 19.0463 10.375 19.5461C10.398 20.0569 10.0042 20.4801 9.50943 20.5023Z" fill="#393C43"/>
</svg>
