<svg width="28" height="29" viewBox="0 0 28 29" fill="none" xmlns="http://www.w3.org/2000/svg">
  <rect width="28" height="28" transform="translate(0 0.5)" fill="transparent" />
  <path d="M19.2497 23.1667C19.8533 22.9289 20.4383 22.6463 20.9997 22.3213V26.7499C20.9997 26.9819 20.9075 27.2045 20.7434 27.3686C20.5794 27.5327 20.3568 27.6249 20.1247 27.6249C19.8927 27.6249 19.6701 27.5327 19.506 27.3686C19.3419 27.2045 19.2497 26.9819 19.2497 26.7499V23.1667ZM20.536 13.4947L14.411 10.2277C14.2066 10.1233 13.9694 10.1034 13.7505 10.1722C13.5316 10.241 13.3485 10.3931 13.2407 10.5956C13.1328 10.7981 13.1088 11.0349 13.1739 11.255C13.2389 11.475 13.3878 11.6607 13.5885 11.772L18.7029 14.4999L20.5622 13.5089L20.536 13.4947ZM27.536 10.2277L14.411 3.22767C14.2844 3.16026 14.1432 3.125 13.9997 3.125C13.8563 3.125 13.7151 3.16026 13.5885 3.22767L0.463477 10.2277C0.323481 10.3023 0.206402 10.4135 0.124764 10.5496C0.0431258 10.6856 0 10.8412 0 10.9999C0 11.1585 0.0431258 11.3141 0.124764 11.4502C0.206402 11.5862 0.323481 11.6974 0.463477 11.772L3.49973 13.3919V18.6878C3.49882 19.1176 3.657 19.5325 3.94379 19.8527C5.3766 21.4484 8.58676 24.1249 13.9997 24.1249C15.7945 24.1397 17.5759 23.8146 19.2497 23.1667V14.7919L18.7029 14.4999L13.9997 17.0078L4.79363 12.0936L2.7341 10.9999L13.9997 4.99189L25.2654 10.9999L23.2113 12.0936H23.2047L20.5622 13.5089C20.6953 13.5857 20.8057 13.6962 20.8825 13.8293C20.9593 13.9623 20.9998 14.1133 20.9997 14.2669V22.3213C22.1407 21.6626 23.1718 20.8297 24.0557 19.8527C24.3425 19.5325 24.5006 19.1176 24.4997 18.6878V13.3919L27.536 11.772C27.676 11.6974 27.7931 11.5862 27.8747 11.4502C27.9563 11.3141 27.9995 11.1585 27.9995 10.9999C27.9995 10.8412 27.9563 10.6856 27.8747 10.5496C27.7931 10.4135 27.676 10.3023 27.536 10.2277Z" fill="#393C43" />
</svg>