<svg width="28" height="29" viewBox="0 0 28 29" fill="none" xmlns="http://www.w3.org/2000/svg">
  <rect width="28" height="28" transform="translate(0 0.5)" fill="transparent" />
  <path d="M22.75 4H5.25C4.78587 4 4.34075 4.18437 4.01256 4.51256C3.68437 4.84075 3.5 5.28587 3.5 5.75V23.25C3.5 23.7141 3.68437 24.1592 4.01256 24.4874C4.34075 24.8156 4.78587 25 5.25 25H22.75C23.2141 25 23.6592 24.8156 23.9874 24.4874C24.3156 24.1592 24.5 23.7141 24.5 23.25V5.75C24.5 5.28587 24.3156 4.84075 23.9874 4.51256C23.6592 4.18437 23.2141 4 22.75 4ZM7 8.375H21C21.2321 8.375 21.4546 8.46719 21.6187 8.63128C21.7828 8.79538 21.875 9.01794 21.875 9.25C21.875 9.48206 21.7828 9.70462 21.6187 9.86872C21.4546 10.0328 21.2321 10.125 21 10.125H7C6.76794 10.125 6.54538 10.0328 6.38128 9.86872C6.21719 9.70462 6.125 9.48206 6.125 9.25C6.125 9.01794 6.21719 8.79538 6.38128 8.63128C6.54538 8.46719 6.76794 8.375 7 8.375ZM7 13.625H10.5C10.7321 13.625 10.9546 13.7172 11.1187 13.8813C11.2828 14.0454 11.375 14.2679 11.375 14.5C11.375 14.7321 11.2828 14.9546 11.1187 15.1187C10.9546 15.2828 10.7321 15.375 10.5 15.375H7C6.76794 15.375 6.54538 15.2828 6.38128 15.1187C6.21719 14.9546 6.125 14.7321 6.125 14.5C6.125 14.2679 6.21719 14.0454 6.38128 13.8813C6.54538 13.7172 6.76794 13.625 7 13.625ZM11.375 20.625H7C6.76794 20.625 6.54538 20.5328 6.38128 20.3687C6.21719 20.2046 6.125 19.9821 6.125 19.75C6.125 19.5179 6.21719 19.2954 6.38128 19.1313C6.54538 18.9672 6.76794 18.875 7 18.875H11.375C11.6071 18.875 11.8296 18.9672 11.9937 19.1313C12.1578 19.2954 12.25 19.5179 12.25 19.75C12.25 19.9821 12.1578 20.2046 11.9937 20.3687C11.8296 20.5328 11.6071 20.625 11.375 20.625ZM21.7164 16.1723L19.763 17.7812L20.358 20.1875C20.3787 20.2711 20.3743 20.359 20.3454 20.4402C20.3164 20.5213 20.2641 20.5921 20.195 20.6436C20.1193 20.6994 20.0277 20.7297 19.9336 20.73C19.8567 20.7295 19.7812 20.7088 19.7148 20.6698L17.5 19.3716L15.2884 20.6742C15.2142 20.7179 15.1287 20.7386 15.0427 20.7339C14.9568 20.7292 14.8741 20.6992 14.805 20.6477C14.736 20.5962 14.6837 20.5255 14.6547 20.4444C14.6257 20.3633 14.6213 20.2755 14.642 20.1919L15.237 17.7856L13.2836 16.1723C13.2164 16.1168 13.1674 16.0424 13.1428 15.9588C13.1182 15.8752 13.1191 15.7862 13.1454 15.7031C13.1717 15.62 13.2223 15.5467 13.2905 15.4925C13.3588 15.4384 13.4417 15.4058 13.5286 15.3991L16.1077 15.2L17.0986 12.9031C17.1325 12.8249 17.1886 12.7582 17.2599 12.7114C17.3312 12.6646 17.4147 12.6396 17.5 12.6396C17.5853 12.6396 17.6688 12.6646 17.7401 12.7114C17.8114 12.7582 17.8675 12.8249 17.9014 12.9031L18.8923 15.2L21.4714 15.3991C21.5583 15.4058 21.6412 15.4384 21.7095 15.4925C21.7777 15.5467 21.8283 15.62 21.8546 15.7031C21.8809 15.7862 21.8818 15.8752 21.8572 15.9588C21.8326 16.0424 21.7836 16.1168 21.7164 16.1723Z" fill="#393C43" />
</svg>