<svg width="40" height="40" viewBox="0 0 40 40" fill="none" xmlns="http://www.w3.org/2000/svg">
  <path fill-rule="evenodd" clip-rule="evenodd" d="M2.5 20C2.5 9.85177 9.85177 2.5 20 2.5C30.1482 2.5 37.5 9.85177 37.5 20C37.5 30.1482 30.1482 37.5 20 37.5C9.85177 37.5 2.5 30.1482 2.5 20ZM16.7188 14.5312C16.7188 13.512 16.7188 13.0024 16.8853 12.6004C17.1073 12.0644 17.5331 11.6385 18.0691 11.4165C18.4711 11.25 18.9808 11.25 20 11.25C21.0192 11.25 21.5289 11.25 21.9309 11.4165C22.4669 11.6385 22.8927 12.0644 23.1147 12.6004C23.2812 13.0024 23.2812 13.512 23.2812 14.5312V16.6138C23.2812 16.6632 23.2812 16.688 23.2966 16.7034C23.312 16.7188 23.3368 16.7188 23.3862 16.7188H25.4688C26.488 16.7188 26.9976 16.7188 27.3996 16.8853C27.9356 17.1073 28.3615 17.5331 28.5835 18.0691C28.75 18.4711 28.75 18.9808 28.75 20C28.75 21.0192 28.75 21.5289 28.5835 21.9309C28.3615 22.4669 27.9356 22.8927 27.3996 23.1147C26.9976 23.2812 26.488 23.2812 25.4688 23.2812H23.3862C23.3368 23.2812 23.312 23.2812 23.2966 23.2966C23.2812 23.312 23.2812 23.3368 23.2812 23.3862V25.4688C23.2812 26.488 23.2812 26.9976 23.1147 27.3996C22.8927 27.9356 22.4669 28.3615 21.9309 28.5835C21.5289 28.75 21.0192 28.75 20 28.75C18.9808 28.75 18.4711 28.75 18.0691 28.5835C17.5331 28.3615 17.1073 27.9356 16.8853 27.3996C16.7188 26.9976 16.7188 26.488 16.7188 25.4688V23.3862C16.7188 23.3368 16.7188 23.312 16.7034 23.2966C16.688 23.2812 16.6632 23.2812 16.6138 23.2812H14.5312C13.512 23.2812 13.0024 23.2812 12.6004 23.1147C12.0644 22.8927 11.6385 22.4669 11.4165 21.9309C11.25 21.5289 11.25 21.0192 11.25 20C11.25 18.9808 11.25 18.4711 11.4165 18.0691C11.6385 17.5331 12.0644 17.1073 12.6004 16.8853C13.0024 16.7188 13.512 16.7188 14.5312 16.7188H16.6138C16.6632 16.7188 16.688 16.7188 16.7034 16.7034C16.7188 16.688 16.7188 16.6632 16.7188 16.6138V14.5312Z" fill="white" />
</svg>