<svg width="36" height="36" viewBox="0 0 36 36" fill="none" xmlns="http://www.w3.org/2000/svg">
<rect width="36" height="36" rx="18" fill="#E8E8E8"/>
<path d="M17.8997 14.5389V19.0203M17.8997 22.3814V22.3926M7.81641 17.9C7.81641 19.2241 8.07722 20.5353 8.58395 21.7587C9.09069 22.982 9.83342 24.0936 10.7697 25.0299C11.7061 25.9663 12.8176 26.709 14.041 27.2157C15.2644 27.7225 16.5756 27.9833 17.8997 27.9833C19.2239 27.9833 20.5351 27.7225 21.7584 27.2157C22.9818 26.709 24.0934 25.9663 25.0297 25.0299C25.966 24.0936 26.7088 22.982 27.2155 21.7587C27.7222 20.5353 27.983 19.2241 27.983 17.9C27.983 16.5758 27.7222 15.2646 27.2155 14.0412C26.7088 12.8179 25.966 11.7063 25.0297 10.77C24.0934 9.83366 22.9818 9.09093 21.7584 8.5842C20.5351 8.07746 19.2239 7.81665 17.8997 7.81665C16.5756 7.81665 15.2644 8.07746 14.041 8.5842C12.8176 9.09093 11.7061 9.83366 10.7697 10.77C9.83342 11.7063 9.09069 12.8179 8.58395 14.0412C8.07722 15.2646 7.81641 16.5758 7.81641 17.9Z" stroke="#393C43" stroke-width="2.01666" stroke-linecap="round" stroke-linejoin="round"/>
</svg>
