<svg width="25" height="25" viewBox="0 0 25 25" fill="none" xmlns="http://www.w3.org/2000/svg">
  <g clip-path="url(#clip0_491_8634)">
    <path d="M0.261528 12.4473L4.87095 2.87297C5.07559 2.44653 5.5758 2.25187 6.01889 2.41963C6.66688 2.65142 7.20397 2.79229 7.71416 2.86272C9.16125 3.06096 10.7054 2.75541 12.0616 2.00344C13.7602 1.02659 15.6872 0.627037 17.6376 0.848582C19.3365 1.03991 20.9142 1.68789 22.2401 2.73185L22.4819 2.22831C22.4952 2.19809 22.5121 2.1712 22.5323 2.14789C22.4952 2.05389 22.4752 1.94965 22.4752 1.83901C22.4752 1.37235 22.8545 0.989706 23.3245 0.989706C23.7912 0.989706 24.1738 1.36902 24.1738 1.83901C24.1738 2.23164 23.9052 2.56409 23.5427 2.65808C23.5361 2.67832 23.5258 2.70162 23.5159 2.72186L13.2098 24.1498C13.1124 24.3547 12.9075 24.4722 12.696 24.4722C12.6122 24.4722 12.5282 24.4553 12.4478 24.4151C12.1622 24.2773 12.0449 23.9382 12.1791 23.6529L16.8388 13.9746C14.2773 11.8462 10.6818 11.5273 7.76462 13.2093C6.71375 13.8101 5.51868 14.1728 4.3103 14.2566C4.12897 14.2701 3.95096 14.2735 3.76963 14.2735C2.73925 14.2735 1.7017 14.0755 0.748417 13.6892C0.513296 13.5953 0.328888 13.4039 0.238222 13.1724C0.144224 12.9339 0.154213 12.6689 0.261528 12.4473ZM3.90076 13.1355L5.36757 10.0536C5.28715 10.0569 5.20647 10.0569 5.12605 10.0569C4.35384 10.0569 3.58164 9.93604 2.84657 9.7045L1.3964 12.7157C2.21215 13.0113 3.05812 13.1522 3.90076 13.1355ZM10.9203 11.0374L12.3874 7.95878C11.1754 8.06302 9.97367 8.42543 8.86901 9.05985C8.84571 9.07342 8.82547 9.08341 8.80191 9.09698L7.35508 12.1282C8.46972 11.5173 9.6781 11.148 10.9203 11.0374ZM17.5336 5.05487C16.4223 4.66557 15.2375 4.51112 14.0657 4.60179L12.5013 7.88169C13.6764 7.79768 14.8546 7.95545 15.9659 8.34501L17.5336 5.05487ZM12.6256 2.99719C12.6256 2.99719 12.6222 2.99719 12.6222 3.00052L12.6189 3.00385C12.2429 3.21207 11.8536 3.38982 11.4574 3.53761L10.4536 5.64574C11.5749 5.00134 12.7936 4.63867 14.0222 4.53802L15.2073 2.05056C14.3175 2.21166 13.4446 2.5272 12.6256 2.99719ZM10.2992 5.80351C9.36256 6.30705 8.31169 6.6126 7.24751 6.68304C7.1804 6.68662 7.10997 6.68995 7.04287 6.69328L5.47514 9.98317C6.60643 9.92938 7.72774 9.61384 8.75171 9.0432L10.2992 5.80351ZM7.5633 3.99427C7.0193 3.92025 6.45865 3.77938 5.80759 3.55451L4.49138 6.2904C5.31071 6.55216 6.15668 6.66639 6.99574 6.63617L8.22794 4.05471C8.00307 4.04447 7.78152 4.02449 7.5633 3.99427ZM18.9369 2.26519L17.6243 5.01466C18.6144 5.37067 19.5478 5.91109 20.3704 6.62951L21.7366 3.78604C20.8973 3.08453 19.944 2.57407 18.9369 2.26519ZM18.732 10.0403C17.9163 9.32186 16.9863 8.78477 15.9994 8.42876L14.5626 11.44C15.5697 11.7624 16.5096 12.2626 17.349 12.9173L18.732 10.0403Z" fill="#393C43" fill-opacity="0.5" />
  </g>
  <defs>
    <clipPath id="clip0_491_8634">
      <rect width="24" height="24" fill="white" transform="matrix(-1 0 0 1 24.1738 0.655273)" />
    </clipPath>
  </defs>
</svg>