<svg width="46" height="45" viewBox="0 0 46 45" fill="none" xmlns="http://www.w3.org/2000/svg">
<path d="M23 3.75C33.3546 3.75013 41.75 12.1454 41.75 22.5C41.7499 32.8545 33.3545 41.2499 23 41.25C12.6454 41.25 4.25013 32.8546 4.25 22.5C4.25 12.1453 12.6453 3.75 23 3.75ZM31.0791 17.1416C31.5488 14.3216 30.6064 14.0775 27.5361 15.3506C26.365 15.8372 17.8851 19.3516 11.332 22.2344C9.6983 22.9533 9.29918 23.7018 10.9814 24.2793C11.4183 24.4293 12.5411 24.8233 13.6904 25.1533C15.2108 25.5901 16.0584 25.3157 16.9404 24.7168C17.5245 24.3202 22.1125 21.2738 25.4219 19.0791C25.7931 18.8325 26.1975 19.338 25.876 19.6455C23.4213 21.9867 20.2713 24.9949 19.7891 25.4668C18.4381 26.7887 19.515 27.4607 20.2959 28.0186C21.1521 28.6309 25.0939 31.2372 25.875 31.7529C27.4987 32.8245 28.5319 32.5313 28.9922 30.0547C29.7684 25.8783 30.7416 19.1688 31.0791 17.1416Z" fill="white"/>
</svg>
