<svg width="46" height="45" viewBox="0 0 46 45" fill="none" xmlns="http://www.w3.org/2000/svg">
  <path d="M23.2276 4.099C13.3877 4.099 5.40967 12.077 5.40967 21.917C5.40967 25.2596 6.34859 28.3761 7.95012 31.0493L5.56917 39.7349L14.4405 37.4062C17.0349 38.8813 20.03 39.7349 23.2276 39.7349C33.0676 39.7349 41.0456 31.7569 41.0456 21.917C41.0456 12.077 33.0676 4.099 23.2276 4.099ZM17.1288 13.6054C17.4184 13.6054 17.7159 13.6036 17.9727 13.617C18.2905 13.6244 18.6363 13.6477 18.9674 14.3797C19.3609 15.2498 20.2177 17.4326 20.3276 17.6539C20.4375 17.8751 20.5153 18.1358 20.3624 18.4253C20.2169 18.7223 20.1412 18.902 19.9274 19.1648C19.7061 19.4202 19.4637 19.7374 19.2633 19.9304C19.042 20.1517 18.8136 20.3943 19.069 20.8352C19.3243 21.2762 20.2113 22.7219 21.5224 23.889C23.2077 25.3946 24.6296 25.8573 25.0721 26.0786C25.5146 26.2998 25.7708 26.2653 26.0262 25.9684C26.289 25.6788 27.13 24.6853 27.4269 24.2428C27.7165 23.8003 28.012 23.8769 28.4129 24.0224C28.8198 24.1679 30.9894 25.2367 31.4319 25.4579C31.8744 25.6792 32.1645 25.7887 32.2758 25.9684C32.3902 26.154 32.3903 27.0375 32.0235 28.068C31.6568 29.097 29.8558 30.0921 29.0481 30.1618C28.2329 30.2376 27.4721 30.5282 23.7496 29.0627C19.2595 27.2943 16.4278 22.6953 16.2066 22.3984C15.9854 22.1088 14.4086 20.0073 14.4086 17.8395C14.4086 15.6642 15.5491 14.5989 15.9485 14.1564C16.3553 13.7139 16.8318 13.6054 17.1288 13.6054Z" fill="white" />
</svg>