<svg width="40" height="41" fill="none" xmlns="http://www.w3.org/2000/svg"><path d="M26.593 40.24c-.12 0-.26-.02-.38-.06a22.415 22.415 0 0 0-12.267 0c-.74.2-1.521-.22-1.721-.961-.22-.74.22-1.521.96-1.721a25.293 25.293 0 0 1 13.809 0c.74.22 1.18.98.96 1.72-.2.621-.76 1.021-1.36 1.021Zm7.905-31.3C32.417 4.739 28.395 1.637 23.732.617c-4.883-1.08-9.886.08-13.708 3.162C6.18 6.84 4 11.422 4 16.325c0 5.183 3.102 10.607 7.785 13.748v1.661c-.02.56-.04 1.421.64 2.122.7.72 1.741.8 2.562.8h10.266c1.08 0 1.9-.3 2.461-.86.76-.78.74-1.781.72-2.322v-1.4c6.204-4.183 10.107-13.008 6.064-21.133ZM23.512 19.468 21.37 23.19c-.28.48-.78.76-1.3.76-.26 0-.52-.06-.74-.2a1.51 1.51 0 0 1-.561-2.04l1.7-2.962h-1.68c-1 0-1.821-.44-2.262-1.181-.44-.76-.4-1.681.1-2.562l2.142-3.722a1.51 1.51 0 0 1 2.041-.56c.72.42.96 1.34.56 2.041l-1.7 2.962h1.68c1 0 1.821.44 2.262 1.18.44.761.4 1.702-.1 2.562Z" fill="#393C43"/></svg>