<svg width="312" height="53" fill="none" xmlns="http://www.w3.org/2000/svg"><path d="M232.925.766c9.38 0 17.599 4.968 22.171 12.415.938 1.527 2.537 2.585 4.329 2.585 1.791 0 3.391-1.058 4.328-2.585C268.326 5.734 276.545.766 285.925.766c14.359 0 26 11.64 26 26 0 14.359-11.641 26-26 26-8.198 0-15.509-3.794-20.274-9.722-1.543-1.919-3.764-3.278-6.226-3.278s-4.683 1.36-6.226 3.278c-4.765 5.928-12.077 9.722-20.274 9.722h-206c-14.36 0-26-11.641-26-26 0-14.36 11.64-26 26-26h206Z" fill="#CCCDCE"/><path d="M63.607 24.58v-1.694c0-1.188.235-2.12.704-2.794.47-.675 1.305-1.012 2.508-1.012.616 0 1.144.102 1.584.308.44.19.777.425 1.012.704.25.278.44.63.572 1.056.132.425.213.814.242 1.166.044.337.066.726.066 1.166 0 1.862-.587 2.889-1.76 3.08 1.173.088 1.76.946 1.76 2.574v2.134c0 2.464-1.1 3.696-3.3 3.696-2.259 0-3.388-1.306-3.388-3.916v-2.266h2.068v2.574c0 .366.022.667.066.902.044.234.168.447.374.638.205.19.491.286.858.286.47 0 .792-.118.968-.352.19-.25.286-.726.286-1.43v-2.178c0-.528-.074-.917-.22-1.166-.132-.264-.41-.396-.836-.396h-1.65v-1.936h1.518c.454 0 .763-.125.924-.374.176-.25.264-.719.264-1.408v-1.386c0-1.13-.433-1.694-1.298-1.694-.85 0-1.276.535-1.276 1.606v2.112h-2.046ZM78.39 34.766h-2.002l-.396-2.86H73.66l-.352 2.86h-2.002l2.2-15.532h2.486l2.398 15.532Zm-2.662-4.752-.99-8.074-.858 8.074h1.848Zm9.636 4.752h-2.046v-13.53h-1.892v13.53H79.38V19.234h5.984v15.532Zm7.954 0h-2.046V26.23l-2.112 6.82v1.716h-2.046V19.234h2.046v8.294l2.112-6.82v-1.474h2.046v15.532Zm8.455-6.424v2.706c0 2.61-1.129 3.916-3.388 3.916-2.2 0-3.3-1.232-3.3-3.696V23.48c0-.44.015-.829.044-1.166.044-.352.132-.741.264-1.166.132-.426.315-.778.55-1.056.25-.279.594-.514 1.034-.704.44-.206.968-.308 1.584-.308 1.203 0 2.039.337 2.508 1.012.469.674.704 1.606.704 2.794v1.98h-2.046v-2.398c0-1.071-.425-1.606-1.276-1.606-.865 0-1.298.564-1.298 1.694V31.4c0 .704.088 1.18.264 1.43.19.234.52.352.99.352.528 0 .873-.162 1.034-.484.176-.323.264-.77.264-1.342v-3.014h2.068Zm7.898 6.424h-2.002l-.396-2.86h-2.332l-.352 2.86h-2.002l2.2-15.532h2.486l2.398 15.532Zm-2.662-4.752-.99-8.074-.858 8.074h1.848Zm9.32-8.954h-2.42v13.706h-2.09V21.06h-2.354v-1.826h6.864v1.826Zm1.1-1.826h2.024v6.424h1.98c.821 0 1.378.176 1.672.528.293.352.44.946.44 1.782v3.916c0 1.144-.118 1.914-.352 2.31-.22.381-.792.572-1.716.572h-4.048V19.234Zm2.024 8.294v5.368h1.298c.278 0 .469-.044.572-.132.102-.103.154-.286.154-.55v-3.916c0-.294-.052-.492-.154-.594-.103-.118-.308-.176-.616-.176h-1.254Zm11.968.814v2.706c0 2.61-1.129 3.916-3.388 3.916-2.2 0-3.3-1.232-3.3-3.696V23.48c0-.44.015-.829.044-1.166.044-.352.132-.741.264-1.166.132-.426.316-.778.55-1.056.25-.279.594-.514 1.034-.704.44-.206.968-.308 1.584-.308 1.203 0 2.039.337 2.508 1.012.47.674.704 1.606.704 2.794v1.98h-2.046v-2.398c0-1.071-.425-1.606-1.276-1.606-.865 0-1.298.564-1.298 1.694V31.4c0 .704.088 1.18.264 1.43.191.234.521.352.99.352.528 0 .873-.162 1.034-.484.176-.323.264-.77.264-1.342v-3.014h2.068Zm5.104-.77c-.498.014-.836.146-1.012.396-.161.249-.242.726-.242 1.43v3.388c0 .718-.154 1.232-.462 1.54-.293.293-.814.44-1.562.44h-.836v-1.87c.338 0 .558-.052.66-.154.103-.118.154-.338.154-.66v-3.278c0-1.203.462-1.914 1.386-2.134-.484-.088-.85-.294-1.1-.616-.249-.323-.374-.829-.374-1.518v-2.288c0-1.232.206-2.054.616-2.464.367-.367.946-.55 1.738-.55h3.762v15.532h-2.046v-7.194h-.682Zm.66-1.87v-4.598h-1.122c-.381 0-.623.073-.726.22-.102.132-.154.44-.154.924v1.804c0 .689.066 1.136.198 1.342.132.205.433.308.902.308h.902Zm13.899 9.064h-2.046V27.55h-1.892v7.216H145.1V19.234h2.046v6.314h1.892v-6.314h2.046v15.532Zm8.152 0h-2.002l-.396-2.86h-2.332l-.352 2.86h-2.002l2.2-15.532h2.486l2.398 15.532Zm-2.662-4.752-.99-8.074-.858 8.074h1.848Zm13.739 4.752h-2.046v-13.53h-1.892v13.53h-2.046V19.234h5.984v15.532Zm1.773-15.532h4.004c.821 0 1.378.176 1.672.528.293.352.44.946.44 1.782v3.3c0 1.144-.118 1.914-.352 2.31-.22.381-.792.572-1.716.572h-2.046v7.04h-2.002V19.234Zm2.024 1.892v4.752h1.298c.278 0 .469-.044.572-.132.102-.103.154-.286.154-.55v-3.3c0-.294-.052-.492-.154-.594-.103-.118-.308-.176-.616-.176h-1.254Zm11.484 13.64h-2.046V26.23l-2.112 6.82v1.716h-2.046V19.234h2.046v8.294l2.112-6.82v-1.474h2.046v15.532Zm6.936 0h-5.126V19.234h5.126v1.936h-3.058v4.554h2.728v1.936h-2.706v5.148h3.036v1.958Zm10.384 0h-1.892c0-6.6-.029-10.766-.088-12.496l-1.694 12.496h-1.738l-1.76-12.496v12.496h-1.914V19.234h2.926l1.628 10.296 1.518-10.296h3.014v15.532Z" fill="#393C43" fill-opacity=".5"/><g opacity=".5"><path d="M278.44 26.015h-.75v1.5h.75v-1.5Zm15.909 1.5a.75.75 0 1 0 0-1.5v1.5Zm-15.909-.75v.75h15.909v-1.5H278.44v.75Z" fill="#393C43"/><path d="m288.516 19.87 6.894 6.895-6.894 6.894" stroke="#393C43" stroke-width="1.5" stroke-linecap="round" stroke-linejoin="round"/></g></svg>