<svg width="28" height="28" fill="none" xmlns="http://www.w3.org/2000/svg"><path fill-rule="evenodd" clip-rule="evenodd" d="m18.901 3.743.001.833c3.06.24 5.083 2.325 5.086 5.524L24 19.462c.004 3.487-2.186 5.633-5.698 5.638l-8.578.011c-3.49.005-5.708-2.192-5.712-5.69L4 10.17c-.004-3.22 1.946-5.3 5.007-5.58l-.001-.834a.83.83 0 0 1 .843-.856c.483-.001.845.365.846.854l.001.777 6.517-.008-.001-.778a.83.83 0 0 1 .843-.856.836.836 0 0 1 .846.854Zm-13.21 6.77L22.3 10.49v-.389c-.048-2.388-1.245-3.64-3.396-3.827l.001.855a.843.843 0 0 1-.843.856.836.836 0 0 1-.846-.854l-.001-.9-6.517.01.002.898a.836.836 0 0 1-.844.856.835.835 0 0 1-.846-.854v-.855c-2.14.215-3.324 1.472-3.32 3.88v.346ZM17.6 15.56v.012c.01.511.427.899.933.888.494-.012.887-.436.876-.946a.921.921 0 0 0-.911-.886.92.92 0 0 0-.899.932Zm.905 4.987a.942.942 0 0 1-.913-.943.926.926 0 0 1 .898-.946h.011c.516 0 .934.42.934.942a.938.938 0 0 1-.93.947Zm-5.426-4.969c.022.51.44.91.944.887a.915.915 0 0 0 .866-.956.907.907 0 0 0-.912-.887.948.948 0 0 0-.898.956Zm.949 4.919a.914.914 0 0 1-.945-.888.95.95 0 0 1 .899-.956c.493 0 .9.388.911.886a.914.914 0 0 1-.865.958Zm-5.468-4.88c.021.51.44.91.944.887a.912.912 0 0 0 .864-.956.905.905 0 0 0-.911-.887.947.947 0 0 0-.897.956Zm.948 4.885a.913.913 0 0 1-.944-.887.948.948 0 0 1 .898-.956.906.906 0 0 1 .912.887.912.912 0 0 1-.866.956Z" fill="#393C43"/></svg>