<svg width="28" height="29" fill="none" xmlns="http://www.w3.org/2000/svg"><path fill="transparent" d="M0 .5h28v28H0z"/><path d="M19.25 23.167c.603-.238 1.188-.52 1.75-.846v4.429a.875.875 0 0 1-1.75 0v-3.583Zm1.286-9.672-6.125-3.267a.875.875 0 0 0-.822 1.544l5.114 2.728 1.86-.991-.027-.014Zm7-3.267-13.125-7a.875.875 0 0 0-.822 0l-13.126 7a.874.874 0 0 0 0 1.544l3.037 1.62v5.296c-.001.43.157.845.444 1.165C5.377 21.448 8.587 24.125 14 24.125c1.794.015 3.576-.31 5.25-.958v-8.375l-.547-.292L14 17.008l-9.206-4.914L2.734 11 14 4.992 25.265 11l-2.054 1.094h-.006l-2.643 1.415a.874.874 0 0 1 .438.758v8.054a12.65 12.65 0 0 0 3.056-2.468 1.74 1.74 0 0 0 .444-1.165v-5.296l3.036-1.62a.875.875 0 0 0 0-1.544Z" fill="#393C43"/></svg>