<svg width="28" height="29" fill="none" xmlns="http://www.w3.org/2000/svg"><path fill="transparent" d="M0 .5h28v28H0z"/><path d="M22.75 4H5.25A1.75 1.75 0 0 0 3.5 5.75v17.5A1.75 1.75 0 0 0 5.25 25h17.5a1.75 1.75 0 0 0 1.75-1.75V5.75A1.75 1.75 0 0 0 22.75 4ZM7 8.375h14a.875.875 0 1 1 0 1.75H7a.875.875 0 0 1 0-1.75Zm0 5.25h3.5a.875.875 0 1 1 0 1.75H7a.875.875 0 0 1 0-1.75Zm4.375 7H7a.875.875 0 0 1 0-1.75h4.375a.875.875 0 1 1 0 1.75Zm10.341-4.453-1.953 1.61.595 2.405a.439.439 0 0 1-.424.543.438.438 0 0 1-.22-.06L17.5 19.372l-2.212 1.302a.437.437 0 0 1-.646-.482l.595-2.406-1.953-1.614a.437.437 0 0 1 .245-.773l2.579-.199.99-2.297a.438.438 0 0 1 .803 0l.991 2.297 2.58.2a.438.438 0 0 1 .244.772Z" fill="#393C43"/></svg>