<svg width="40" height="40" fill="none" xmlns="http://www.w3.org/2000/svg"><path fill-rule="evenodd" clip-rule="evenodd" d="M2.5 20C2.5 9.852 9.852 2.5 20 2.5S37.5 9.852 37.5 20 30.148 37.5 20 37.5 2.5 30.148 2.5 20Zm14.219-5.469c0-1.019 0-1.529.166-1.93a2.187 2.187 0 0 1 1.184-1.185c.402-.166.912-.166 1.931-.166 1.02 0 1.529 0 1.93.166a2.19 2.19 0 0 1 1.185 1.184c.166.402.166.912.166 1.931v2.083c0 .05 0 .074.016.09.015.015.04.015.09.015h2.082c1.019 0 1.529 0 1.93.166.537.222.962.648 1.184 1.184.167.402.167.912.167 1.931 0 1.02 0 1.529-.166 1.93a2.187 2.187 0 0 1-1.184 1.185c-.402.166-.912.166-1.931.166h-2.083c-.05 0-.074 0-.09.016-.015.015-.015.04-.015.09v2.082c0 1.019 0 1.529-.166 1.93a2.187 2.187 0 0 1-1.184 1.184c-.402.167-.912.167-1.931.167-1.02 0-1.529 0-1.93-.166a2.187 2.187 0 0 1-1.185-1.184c-.166-.402-.166-.912-.166-1.931v-2.083c0-.05 0-.074-.016-.09-.015-.015-.04-.015-.09-.015h-2.082c-1.019 0-1.529 0-1.93-.166a2.187 2.187 0 0 1-1.185-1.184c-.166-.402-.166-.912-.166-1.931 0-1.02 0-1.529.166-1.93a2.187 2.187 0 0 1 1.184-1.185c.402-.166.912-.166 1.931-.166h2.083c.05 0 .074 0 .09-.016.015-.015.015-.04.015-.09v-2.082Z" fill="#fff"/></svg>