<svg width="25" height="25" fill="none" xmlns="http://www.w3.org/2000/svg"><g clip-path="url(#a)"><path d="M.262 12.447 4.87 2.873a.913.913 0 0 1 1.148-.453c.648.231 1.185.372 1.695.443 1.447.198 2.991-.108 4.348-.86A9.056 9.056 0 0 1 17.638.85a9.034 9.034 0 0 1 4.602 1.883l.242-.504a.317.317 0 0 1 .05-.08.85.85 0 1 1 1.642-.309.847.847 0 0 1-.631.82.525.525 0 0 1-.027.063L13.21 24.15a.567.567 0 0 1-.762.265.573.573 0 0 1-.269-.762l4.66-9.678a7.94 7.94 0 0 0-9.074-.766 8.139 8.139 0 0 1-3.455 1.048 8.087 8.087 0 0 1-3.562-.567.919.919 0 0 1-.486-1.243Zm3.639.689 1.467-3.082c-.08.003-.162.003-.242.003a7.602 7.602 0 0 1-2.28-.353l-1.45 3.012a6.937 6.937 0 0 0 2.505.42Zm7.02-2.099 1.466-3.078a8.52 8.52 0 0 0-3.518 1.1l-.067.038-1.447 3.031a9.08 9.08 0 0 1 3.565-1.09Zm6.613-5.982a8.519 8.519 0 0 0-3.468-.453L12.5 7.882a8.613 8.613 0 0 1 3.465.463l1.568-3.29Zm-4.908-2.058s-.004 0-.004.004l-.003.003a8.61 8.61 0 0 1-1.162.534l-1.003 2.108a8.547 8.547 0 0 1 3.568-1.108l1.185-2.487a8.075 8.075 0 0 0-2.581.946Zm-2.327 2.807a7.532 7.532 0 0 1-3.051.879l-.205.01-1.568 3.29a7.456 7.456 0 0 0 3.277-.94l1.547-3.24Zm-2.736-1.81a9.068 9.068 0 0 1-1.755-.44L4.49 6.29c.82.262 1.666.376 2.505.346l1.232-2.581a7.246 7.246 0 0 1-.665-.06Zm11.374-1.729-1.313 2.75c.99.356 1.924.896 2.746 1.615l1.367-2.844a8.039 8.039 0 0 0-2.8-1.52Zm-.205 7.775a8.479 8.479 0 0 0-2.733-1.611l-1.436 3.011a8.979 8.979 0 0 1 2.786 1.477l1.383-2.877Z" fill="#393C43" fill-opacity=".5"/></g><defs><clipPath id="a"><path fill="#fff" transform="matrix(-1 0 0 1 24.174 .655)" d="M0 0h24v24H0z"/></clipPath></defs></svg>