<svg width="46" height="45" fill="none" xmlns="http://www.w3.org/2000/svg"><path d="M23 3.75c10.355 0 18.75 8.395 18.75 18.75S33.355 41.25 23 41.25 4.25 32.855 4.25 22.5 12.645 3.75 23 3.75Zm8.08 13.392c.469-2.82-.474-3.064-3.544-1.791-1.171.486-9.65 4-16.204 6.883-1.634.72-2.033 1.468-.35 2.045.436.15 1.56.544 2.708.874 1.52.437 2.368.163 3.25-.436.584-.397 5.172-3.443 8.482-5.638.371-.247.776.259.454.566-2.455 2.342-5.605 5.35-6.087 5.822-1.35 1.322-.274 1.994.507 2.552.856.612 4.798 3.218 5.579 3.734 1.624 1.072 2.657.778 3.117-1.698.776-4.177 1.75-10.886 2.087-12.913Z" fill="#fff"/></svg>