<svg width="46" height="45" fill="none" xmlns="http://www.w3.org/2000/svg"><path d="M23.228 4.099c-9.84 0-17.818 7.978-17.818 17.818 0 3.343.939 6.46 2.54 9.132l-2.38 8.686 8.87-2.329a17.72 17.72 0 0 0 8.788 2.329c9.84 0 17.818-7.978 17.818-17.818 0-9.84-7.978-17.818-17.818-17.818Zm-6.1 9.506c.29 0 .588-.001.845.012.318.007.663.03.994.763.394.87 1.25 3.053 1.36 3.274.11.221.188.482.035.771-.145.297-.22.477-.435.74-.22.255-.463.572-.664.765-.221.222-.45.464-.194.905.255.441 1.142 1.887 2.453 3.054 1.686 1.506 3.108 1.968 3.55 2.19.443.22.699.186.954-.11.263-.29 1.104-1.284 1.4-1.726.29-.443.586-.366.987-.22.407.145 2.576 1.214 3.019 1.435.442.221.732.33.844.51.114.186.114 1.07-.253 2.1-.366 1.029-2.167 2.024-2.975 2.094-.815.076-1.576.366-5.298-1.1-4.49-1.768-7.322-6.367-7.543-6.664-.222-.29-1.798-2.39-1.798-4.558 0-2.176 1.14-3.241 1.54-3.684.406-.442.883-.55 1.18-.55Z" fill="#fff"/></svg>